name analog
datacolumns 19
datarows 53
range 0.40900000000000014 0.43500000000000016
endheader
time	ground_force_vx	ground_force_vy	ground_force_vz	ground_force_px	ground_force_py	ground_force_pz	l_ground_force_vx	l_ground_force_vy	l_ground_force_vz	l_ground_force_px	l_ground_force_py	l_ground_force_pz	ground_torque_x	ground_torque_y	ground_torque_z	l_ground_torque_x	l_ground_torque_y	l_ground_torque_z
0.40900000000000014	-0.0	-0.0	-0.0	9.174901962280272	-5.025358200073242	-848.800537109375	-0.0	-0.0	-0.0	-0.0	-0.0	-0.0	-0.0	-0.0	-0.0	-0.0	-0.0	-0.0
0.4095000000000001	-0.0	-0.0	-0.0	7.65217113494873	-4.224586486816406	-850.4024047851562	-0.0	-0.0	-0.0	-0.0	-0.0	-0.0	-0.0	-0.0	-0.0	-0.0	-0.0	-0.0
0.41000000000000014	-0.0	-0.0	-0.0	7.212137222290039	-3.916017770767212	-852.1907958984375	-0.0	-0.0	-0.0	-0.0	-0.0	-0.0	-0.0	-0.0	-0.0	-0.0	-0.0	-0.0
0.4105000000000001	-0.0	-0.0	-0.0	6.629560947418213	-4.161170482635498	-851.593017578125	-0.0	-0.0	-0.0	-0.0	-0.0	-0.0	-0.0	-0.0	-0.0	-0.0	-0.0	-0.0
0.41100000000000014	-0.0	-0.0	-0.0	6.14146614074707	-3.724578619003296	-849.806640625	-0.0	-0.0	-0.0	-0.0	-0.0	-0.0	-0.0	-0.0	-0.0	-0.0	-0.0	-0.0
0.4115000000000001	-0.0	-0.0	-0.0	5.573404788970947	-3.447875738143921	-849.0064697265625	-0.0	-0.0	-0.0	-0.0	-0.0	-0.0	-0.0	-0.0	-0.0	-0.0	-0.0	-0.0
0.41200000000000014	-0.0	-0.0	-0.0	5.324240207672119	-2.463250160217285	-847.2224731445312	-0.0	-0.0	-0.0	-0.0	-0.0	-0.0	-0.0	-0.0	-0.0	-0.0	-0.0	-0.0
0.4125000000000001	-0.0	-0.0	-0.0	5.1277852058410645	-1.6934776306152344	-841.8680419921875	-0.0	-0.0	-0.0	-0.0	-0.0	-0.0	-0.0	-0.0	-0.0	-0.0	-0.0	-0.0
0.41300000000000014	-0.0	-0.0	-0.0	4.713832855224609	-1.0409425497055054	-838.095947265625	-0.0	-0.0	-0.0	-0.0	-0.0	-0.0	-0.0	-0.0	-0.0	-0.0	-0.0	-0.0
0.4135000000000001	-0.0	-0.0	-0.0	4.074886798858643	-0.0287710428237915	-832.9693603515625	-0.0	-0.0	-0.0	-0.0	-0.0	-0.0	-0.0	-0.0	-0.0	-0.0	-0.0	-0.0
0.41400000000000015	-0.0	-0.0	-0.0	3.197112798690796	0.5203298926353455	-829.209228515625	-0.0	-0.0	-0.0	-0.0	-0.0	-0.0	-0.0	-0.0	-0.0	-0.0	-0.0	-0.0
0.4145000000000001	-0.0	-0.0	-0.0	2.497894287109375	1.100575566291809	-825.9727172851562	-0.0	-0.0	-0.0	-0.0	-0.0	-0.0	-0.0	-0.0	-0.0	-0.0	-0.0	-0.0
0.41500000000000015	-0.0	-0.0	-0.0	1.6949996948242188	1.827972650527954	-822.0231323242188	-0.0	-0.0	-0.0	-0.0	-0.0	-0.0	-0.0	-0.0	-0.0	-0.0	-0.0	-0.0
0.4155000000000001	-0.0	-0.0	-0.0	1.4114599227905271	1.9462215900421145	-818.3759155273438	-0.0	-0.0	-0.0	-0.0	-0.0	-0.0	-0.0	-0.0	-0.0	-0.0	-0.0	-0.0
0.41600000000000015	-0.0	-0.0	-0.0	1.1597366333007812	1.8259994983673096	-815.845703125	-0.0	-0.0	-0.0	-0.0	-0.0	-0.0	-0.0	-0.0	-0.0	-0.0	-0.0	-0.0
0.4165000000000001	-0.0	-0.0	-0.0	0.9961206912994384	2.673532247543335	-815.3737182617188	-0.0	-0.0	-0.0	-0.0	-0.0	-0.0	-0.0	-0.0	-0.0	-0.0	-0.0	-0.0
0.41700000000000015	-0.0	-0.0	-0.0	1.1151363849639893	3.431525468826294	-812.8435668945312	-0.0	-0.0	-0.0	-0.0	-0.0	-0.0	-0.0	-0.0	-0.0	-0.0	-0.0	-0.0
0.4175000000000001	-0.0	-0.0	-0.0	1.1900546550750732	3.877390146255493	-812.9019775390625	-0.0	-0.0	-0.0	-0.0	-0.0	-0.0	-0.0	-0.0	-0.0	-0.0	-0.0	-0.0
0.41800000000000015	-0.0	-0.0	-0.0	1.3681576251983645	4.6190056800842285	-811.3136596679688	-0.0	-0.0	-0.0	-0.0	-0.0	-0.0	-0.0	-0.0	-0.0	-0.0	-0.0	-0.0
0.4185000000000001	-0.0	-0.0	-0.0	2.18628454208374	5.450765132904053	-808.1353759765625	-0.0	-0.0	-0.0	-0.0	-0.0	-0.0	-0.0	-0.0	-0.0	-0.0	-0.0	-0.0
0.41900000000000015	-0.0	-0.0	-0.0	2.12590765953064	6.239128112792969	-807.7225341796875	-0.0	-0.0	-0.0	-0.0	-0.0	-0.0	-0.0	-0.0	-0.0	-0.0	-0.0	-0.0
0.4195000000000001	-0.0	-0.0	-0.0	2.275871753692627	6.802283763885498	-805.250244140625	-0.0	-0.0	-0.0	-0.0	-0.0	-0.0	-0.0	-0.0	-0.0	-0.0	-0.0	-0.0
0.42000000000000015	-0.0	-0.0	-0.0	2.365314483642578	7.769611835479736	-801.718505859375	-0.0	-0.0	-0.0	-0.0	-0.0	-0.0	-0.0	-0.0	-0.0	-0.0	-0.0	-0.0
0.4205000000000001	-0.0	-0.0	-0.0	2.1103572845458984	8.304461479187012	-800.1842651367188	-0.0	-0.0	-0.0	-0.0	-0.0	-0.0	-0.0	-0.0	-0.0	-0.0	-0.0	-0.0
0.42100000000000015	-0.0	-0.0	-0.0	1.885582447052002	8.436595916748047	-796.725830078125	-0.0	-0.0	-0.0	-0.0	-0.0	-0.0	-0.0	-0.0	-0.0	-0.0	-0.0	-0.0
0.4215000000000001	-0.0	-0.0	-0.0	1.1597366333007812	8.160966873168945	-793.7792358398438	-0.0	-0.0	-0.0	-0.0	-0.0	-0.0	-0.0	-0.0	-0.0	-0.0	-0.0	-0.0
0.42200000000000015	-0.0	-0.0	-0.0	0.7833062410354614	8.246582984924316	-791.2916259765625	-0.0	-0.0	-0.0	-0.0	-0.0	-0.0	-0.0	-0.0	-0.0	-0.0	-0.0	-0.0
0.4225000000000001	-0.0	-0.0	-0.0	-0.0892105102539062	7.995030403137207	-788.9421997070312	-0.0	-0.0	-0.0	-0.0	-0.0	-0.0	-0.0	-0.0	-0.0	-0.0	-0.0	-0.0
0.42300000000000015	-0.0	-0.0	-0.0	-0.8293552398681641	7.780781745910644	-788.0297241210938	-0.0	-0.0	-0.0	-0.0	-0.0	-0.0	-0.0	-0.0	-0.0	-0.0	-0.0	-0.0
0.4235000000000001	-0.0	-0.0	-0.0	-1.6162681579589844	7.350626945495605	-785.2437133789062	-0.0	-0.0	-0.0	-0.0	-0.0	-0.0	-0.0	-0.0	-0.0	-0.0	-0.0	-0.0
0.42400000000000015	-0.0	-0.0	-0.0	-1.831681489944458	6.308093070983887	-784.7884521484375	-0.0	-0.0	-0.0	-0.0	-0.0	-0.0	-0.0	-0.0	-0.0	-0.0	-0.0	-0.0
0.4245000000000001	-0.0	-0.0	-0.0	-2.182590246200561	5.621344089508057	-782.3807983398438	-0.0	-0.0	-0.0	-0.0	-0.0	-0.0	-0.0	-0.0	-0.0	-0.0	-0.0	-0.0
0.42500000000000016	-0.0	-0.0	-0.0	-2.7336180210113525	4.644213199615479	-781.0703735351562	-0.0	-0.0	-0.0	-0.0	-0.0	-0.0	-0.0	-0.0	-0.0	-0.0	-0.0	-0.0
0.4255000000000001	-0.0	-0.0	-0.0	-2.9369876384735107	4.010868072509766	-781.55126953125	-0.0	-0.0	-0.0	-0.0	-0.0	-0.0	-0.0	-0.0	-0.0	-0.0	-0.0	-0.0
0.42600000000000016	-0.0	-0.0	-0.0	-3.154541254043579	3.2335360050201416	-781.2687377929688	-0.0	-0.0	-0.0	-0.0	-0.0	-0.0	-0.0	-0.0	-0.0	-0.0	-0.0	-0.0
0.4265000000000001	-0.0	-0.0	-0.0	-3.009219169616699	1.9447193145751955	-780.3663940429688	-0.0	-0.0	-0.0	-0.0	-0.0	-0.0	-0.0	-0.0	-0.0	-0.0	-0.0	-0.0
0.42700000000000016	-0.0	-0.0	-0.0	-3.089904308319092	0.8508253693580627	-778.376708984375	-0.0	-0.0	-0.0	-0.0	-0.0	-0.0	-0.0	-0.0	-0.0	-0.0	-0.0	-0.0
0.4275000000000001	-0.0	-0.0	-0.0	-3.065737009048462	0.5347824096679688	-781.6179809570312	-0.0	-0.0	-0.0	-0.0	-0.0	-0.0	-0.0	-0.0	-0.0	-0.0	-0.0	-0.0
0.42800000000000016	-0.0	-0.0	-0.0	-2.5469963550567627	0.0654104948043823	-780.1744384765625	-0.0	-0.0	-0.0	-0.0	-0.0	-0.0	-0.0	-0.0	-0.0	-0.0	-0.0	-0.0
0.4285000000000001	-0.0	-0.0	-0.0	-2.7889976501464844	-0.3635524213314056	-781.2340087890625	-0.0	-0.0	-0.0	-0.0	-0.0	-0.0	-0.0	-0.0	-0.0	-0.0	-0.0	-0.0
0.42900000000000016	-0.0	-0.0	-0.0	-2.240032196044922	-0.6568764448165894	-784.020751953125	-0.0	-0.0	-0.0	-0.0	-0.0	-0.0	-0.0	-0.0	-0.0	-0.0	-0.0	-0.0
0.4295000000000001	-0.0	-0.0	-0.0	-2.425254344940185	-0.8352850079536438	-784.6597900390625	-0.0	-0.0	-0.0	-0.0	-0.0	-0.0	-0.0	-0.0	-0.0	-0.0	-0.0	-0.0
0.43000000000000016	-0.0	-0.0	-0.0	-2.587104797363281	-0.6571412086486816	-784.855712890625	-0.0	-0.0	-0.0	-0.0	-0.0	-0.0	-0.0	-0.0	-0.0	-0.0	-0.0	-0.0
0.4305000000000001	-0.0	-0.0	-0.0	-2.2636759281158447	-1.2701897621154783	-787.657470703125	-0.0	-0.0	-0.0	-0.0	-0.0	-0.0	-0.0	-0.0	-0.0	-0.0	-0.0	-0.0
0.43100000000000016	-0.0	-0.0	-0.0	-2.068615436553955	-0.8524494767189026	-791.9169921875	-0.0	-0.0	-0.0	-0.0	-0.0	-0.0	-0.0	-0.0	-0.0	-0.0	-0.0	-0.0
0.4315000000000001	-0.0	-0.0	-0.0	-2.4086837768554688	-0.5902758240699768	-794.5415649414062	-0.0	-0.0	-0.0	-0.0	-0.0	-0.0	-0.0	-0.0	-0.0	-0.0	-0.0	-0.0
0.43200000000000016	-0.0	-0.0	-0.0	-1.6180450916290283	0.6792514324188232	-797.68115234375	-0.0	-0.0	-0.0	-0.0	-0.0	-0.0	-0.0	-0.0	-0.0	-0.0	-0.0	-0.0
0.4325000000000001	-0.0	-0.0	-0.0	-1.6440647840499878	1.409123420715332	-799.3134155273438	-0.0	-0.0	-0.0	-0.0	-0.0	-0.0	-0.0	-0.0	-0.0	-0.0	-0.0	-0.0
0.43300000000000016	-0.0	-0.0	-0.0	-1.406320333480835	2.4275498390197754	-799.381103515625	-0.0	-0.0	-0.0	-0.0	-0.0	-0.0	-0.0	-0.0	-0.0	-0.0	-0.0	-0.0
0.4335000000000001	-0.0	-0.0	-0.0	-1.911287546157837	2.780141592025757	-800.5377807617188	-0.0	-0.0	-0.0	-0.0	-0.0	-0.0	-0.0	-0.0	-0.0	-0.0	-0.0	-0.0
0.43400000000000016	-0.0	-0.0	-0.0	-1.780864715576172	4.117156028747559	-798.4586181640625	-0.0	-0.0	-0.0	-0.0	-0.0	-0.0	-0.0	-0.0	-0.0	-0.0	-0.0	-0.0
0.4345000000000001	-0.0	-0.0	-0.0	-2.048883438110352	4.789895534515381	-799.6110229492188	-0.0	-0.0	-0.0	-0.0	-0.0	-0.0	-0.0	-0.0	-0.0	-0.0	-0.0	-0.0
0.43500000000000016	-0.0	-0.0	-0.0	-2.696254253387451	5.758871555328369	-798.6083984375	-0.0	-0.0	-0.0	-0.0	-0.0	-0.0	-0.0	-0.0	-0.0	-0.0	-0.0	-0.0
